<svg id="visual" viewBox="0 0 900 600" width="900" height="600" xmlns="http://www.w3.org/2000/svg" xmlns:xlink="http://www.w3.org/1999/xlink" version="1.1"><rect x="0" y="0" width="900" height="600" fill="#ffffff"></rect><path d="M0 362L30 335.7C60 309.3 120 256.7 180 259C240 261.3 300 318.7 360 340.8C420 363 480 350 540 330C600 310 660 283 720 258.2C780 233.3 840 210.7 870 199.3L900 188L900 0L870 0C840 0 780 0 720 0C660 0 600 0 540 0C480 0 420 0 360 0C300 0 240 0 180 0C120 0 60 0 30 0L0 0Z" fill="#bb9cc9" stroke-linecap="round" stroke-linejoin="miter"></path></svg>